solid scancal_plate
 facet normal 0 -1 0
  outer loop
   vertex 0.5 0 0
   vertex 8 0 0
   vertex 8 0 2
  endloop
 endfacet
 facet normal 0 1 0
  outer loop
   vertex 0.5 120 0
   vertex 8 120 2
   vertex 8 120 0
  endloop
 endfacet
 facet normal 0 -1 0
  outer loop
   vertex 0.5 0 0
   vertex 8 0 2
   vertex 0 0 2
  endloop
 endfacet
 facet normal 0 1 -0
  outer loop
   vertex 0.5 120 0
   vertex 0 120 2
   vertex 8 120 2
  endloop
 endfacet
 facet normal 0 -1 0
  outer loop
   vertex 0.5 0 0
   vertex 0 0 2
   vertex 0 0 1
  endloop
 endfacet
 facet normal 0 1 0
  outer loop
   vertex 0.5 120 0
   vertex 0 120 1
   vertex 0 120 2
  endloop
 endfacet
 facet normal 0 0 -1
  outer loop
   vertex 0.5 0 0
   vertex 8 120 0
   vertex 8 0 0
  endloop
 endfacet
 facet normal 0 0 -1
  outer loop
   vertex 0.5 0 0
   vertex 0.5 120 0
   vertex 8 120 0
  endloop
 endfacet
 facet normal 1 0 0
  outer loop
   vertex 8 0 0
   vertex 8 120 2
   vertex 8 0 2
  endloop
 endfacet
 facet normal 1 0 0
  outer loop
   vertex 8 0 0
   vertex 8 120 0
   vertex 8 120 2
  endloop
 endfacet
 facet normal 0 0 1
  outer loop
   vertex 8 0 2
   vertex 0 120 2
   vertex 0 0 2
  endloop
 endfacet
 facet normal 0 -0 1
  outer loop
   vertex 8 0 2
   vertex 8 120 2
   vertex 0 120 2
  endloop
 endfacet
 facet normal -1 0 0
  outer loop
   vertex 0 0 2
   vertex 0 120 1
   vertex 0 0 1
  endloop
 endfacet
 facet normal -1 0 0
  outer loop
   vertex 0 0 2
   vertex 0 120 2
   vertex 0 120 1
  endloop
 endfacet
 facet normal -0.894427 0 -0.447214
  outer loop
   vertex 0 0 1
   vertex 0.5 120 0
   vertex 0.5 0 0
  endloop
 endfacet
 facet normal -0.894427 0 -0.447214
  outer loop
   vertex 0 0 1
   vertex 0 120 1
   vertex 0.5 120 0
  endloop
 endfacet
 facet normal 0 -1 0
  outer loop
   vertex 92 0 0
   vertex 99.5 0 0
   vertex 100 0 1
  endloop
 endfacet
 facet normal 0 1 0
  outer loop
   vertex 92 120 0
   vertex 100 120 1
   vertex 99.5 120 0
  endloop
 endfacet
 facet normal 0 -1 0
  outer loop
   vertex 92 0 0
   vertex 100 0 1
   vertex 100 0 2
  endloop
 endfacet
 facet normal 0 1 0
  outer loop
   vertex 92 120 0
   vertex 100 120 2
   vertex 100 120 1
  endloop
 endfacet
 facet normal 0 -1 0
  outer loop
   vertex 92 0 0
   vertex 100 0 2
   vertex 92 0 2
  endloop
 endfacet
 facet normal 0 1 0
  outer loop
   vertex 92 120 0
   vertex 92 120 2
   vertex 100 120 2
  endloop
 endfacet
 facet normal 0 0 -1
  outer loop
   vertex 92 0 0
   vertex 99.5 120 0
   vertex 99.5 0 0
  endloop
 endfacet
 facet normal 0 0 -1
  outer loop
   vertex 92 0 0
   vertex 92 120 0
   vertex 99.5 120 0
  endloop
 endfacet
 facet normal 0.894427 0 -0.447214
  outer loop
   vertex 99.5 0 0
   vertex 100 120 1
   vertex 100 0 1
  endloop
 endfacet
 facet normal 0.894427 0 -0.447214
  outer loop
   vertex 99.5 0 0
   vertex 99.5 120 0
   vertex 100 120 1
  endloop
 endfacet
 facet normal 1 0 0
  outer loop
   vertex 100 0 1
   vertex 100 120 2
   vertex 100 0 2
  endloop
 endfacet
 facet normal 1 0 0
  outer loop
   vertex 100 0 1
   vertex 100 120 1
   vertex 100 120 2
  endloop
 endfacet
 facet normal 0 0 1
  outer loop
   vertex 100 0 2
   vertex 92 120 2
   vertex 92 0 2
  endloop
 endfacet
 facet normal 0 -0 1
  outer loop
   vertex 100 0 2
   vertex 100 120 2
   vertex 92 120 2
  endloop
 endfacet
 facet normal -1 0 0
  outer loop
   vertex 92 0 2
   vertex 92 120 0
   vertex 92 0 0
  endloop
 endfacet
 facet normal -1 0 0
  outer loop
   vertex 92 0 2
   vertex 92 120 2
   vertex 92 120 0
  endloop
 endfacet
 facet normal -1 0 0
  outer loop
   vertex 0 0.5 0
   vertex 0 8 2
   vertex 0 8 0
  endloop
 endfacet
 facet normal 1 0 0
  outer loop
   vertex 100 0.5 0
   vertex 100 8 0
   vertex 100 8 2
  endloop
 endfacet
 facet normal -1 0 0
  outer loop
   vertex 0 0.5 0
   vertex 0 0 2
   vertex 0 8 2
  endloop
 endfacet
 facet normal 1 0 -0
  outer loop
   vertex 100 0.5 0
   vertex 100 8 2
   vertex 100 0 2
  endloop
 endfacet
 facet normal -1 0 0
  outer loop
   vertex 0 0.5 0
   vertex 0 0 1
   vertex 0 0 2
  endloop
 endfacet
 facet normal 1 0 0
  outer loop
   vertex 100 0.5 0
   vertex 100 0 2
   vertex 100 0 1
  endloop
 endfacet
 facet normal 0 0 -1
  outer loop
   vertex 0 0.5 0
   vertex 0 8 0
   vertex 100 8 0
  endloop
 endfacet
 facet normal 0 0 -1
  outer loop
   vertex 0 0.5 0
   vertex 100 8 0
   vertex 100 0.5 0
  endloop
 endfacet
 facet normal 0 1 0
  outer loop
   vertex 0 8 0
   vertex 0 8 2
   vertex 100 8 2
  endloop
 endfacet
 facet normal 0 1 0
  outer loop
   vertex 0 8 0
   vertex 100 8 2
   vertex 100 8 0
  endloop
 endfacet
 facet normal 0 0 1
  outer loop
   vertex 0 8 2
   vertex 0 0 2
   vertex 100 0 2
  endloop
 endfacet
 facet normal -0 0 1
  outer loop
   vertex 0 8 2
   vertex 100 0 2
   vertex 100 8 2
  endloop
 endfacet
 facet normal 0 -1 0
  outer loop
   vertex 0 0 2
   vertex 0 0 1
   vertex 100 0 1
  endloop
 endfacet
 facet normal 0 -1 0
  outer loop
   vertex 0 0 2
   vertex 100 0 1
   vertex 100 0 2
  endloop
 endfacet
 facet normal 0 -0.894427 -0.447214
  outer loop
   vertex 0 0 1
   vertex 0 0.5 0
   vertex 100 0.5 0
  endloop
 endfacet
 facet normal 0 -0.894427 -0.447214
  outer loop
   vertex 0 0 1
   vertex 100 0.5 0
   vertex 100 0 1
  endloop
 endfacet
 facet normal -1 0 0
  outer loop
   vertex 0 112 0
   vertex 0 120 1
   vertex 0 119.5 0
  endloop
 endfacet
 facet normal 1 0 0
  outer loop
   vertex 100 112 0
   vertex 100 119.5 0
   vertex 100 120 1
  endloop
 endfacet
 facet normal -1 0 0
  outer loop
   vertex 0 112 0
   vertex 0 120 2
   vertex 0 120 1
  endloop
 endfacet
 facet normal 1 0 0
  outer loop
   vertex 100 112 0
   vertex 100 120 1
   vertex 100 120 2
  endloop
 endfacet
 facet normal -1 0 0
  outer loop
   vertex 0 112 0
   vertex 0 112 2
   vertex 0 120 2
  endloop
 endfacet
 facet normal 1 0 0
  outer loop
   vertex 100 112 0
   vertex 100 120 2
   vertex 100 112 2
  endloop
 endfacet
 facet normal 0 0 -1
  outer loop
   vertex 0 112 0
   vertex 0 119.5 0
   vertex 100 119.5 0
  endloop
 endfacet
 facet normal 0 0 -1
  outer loop
   vertex 0 112 0
   vertex 100 119.5 0
   vertex 100 112 0
  endloop
 endfacet
 facet normal 0 0.894427 -0.447214
  outer loop
   vertex 0 119.5 0
   vertex 0 120 1
   vertex 100 120 1
  endloop
 endfacet
 facet normal 0 0.894427 -0.447214
  outer loop
   vertex 0 119.5 0
   vertex 100 120 1
   vertex 100 119.5 0
  endloop
 endfacet
 facet normal 0 1 0
  outer loop
   vertex 0 120 1
   vertex 0 120 2
   vertex 100 120 2
  endloop
 endfacet
 facet normal 0 1 0
  outer loop
   vertex 0 120 1
   vertex 100 120 2
   vertex 100 120 1
  endloop
 endfacet
 facet normal 0 0 1
  outer loop
   vertex 0 120 2
   vertex 0 112 2
   vertex 100 112 2
  endloop
 endfacet
 facet normal -0 0 1
  outer loop
   vertex 0 120 2
   vertex 100 112 2
   vertex 100 120 2
  endloop
 endfacet
 facet normal 0 -1 0
  outer loop
   vertex 0 112 2
   vertex 0 112 0
   vertex 100 112 0
  endloop
 endfacet
 facet normal 0 -1 0
  outer loop
   vertex 0 112 2
   vertex 100 112 0
   vertex 100 112 2
  endloop
 endfacet
 facet normal 0 -1 0
  outer loop
   vertex 48.5 7 0
   vertex 51.5 7 0
   vertex 51.5 7 2
  endloop
 endfacet
 facet normal 0 1 0
  outer loop
   vertex 48.5 113 0
   vertex 51.5 113 2
   vertex 51.5 113 0
  endloop
 endfacet
 facet normal 0 -1 0
  outer loop
   vertex 48.5 7 0
   vertex 51.5 7 2
   vertex 48.5 7 2
  endloop
 endfacet
 facet normal 0 1 0
  outer loop
   vertex 48.5 113 0
   vertex 48.5 113 2
   vertex 51.5 113 2
  endloop
 endfacet
 facet normal 0 0 -1
  outer loop
   vertex 48.5 7 0
   vertex 51.5 113 0
   vertex 51.5 7 0
  endloop
 endfacet
 facet normal 0 0 -1
  outer loop
   vertex 48.5 7 0
   vertex 48.5 113 0
   vertex 51.5 113 0
  endloop
 endfacet
 facet normal 1 0 0
  outer loop
   vertex 51.5 7 0
   vertex 51.5 113 2
   vertex 51.5 7 2
  endloop
 endfacet
 facet normal 1 0 0
  outer loop
   vertex 51.5 7 0
   vertex 51.5 113 0
   vertex 51.5 113 2
  endloop
 endfacet
 facet normal 0 0 1
  outer loop
   vertex 51.5 7 2
   vertex 48.5 113 2
   vertex 48.5 7 2
  endloop
 endfacet
 facet normal 0 -0 1
  outer loop
   vertex 51.5 7 2
   vertex 51.5 113 2
   vertex 48.5 113 2
  endloop
 endfacet
 facet normal -1 0 0
  outer loop
   vertex 48.5 7 2
   vertex 48.5 113 0
   vertex 48.5 7 0
  endloop
 endfacet
 facet normal -1 0 0
  outer loop
   vertex 48.5 7 2
   vertex 48.5 113 2
   vertex 48.5 113 0
  endloop
 endfacet
 facet normal 0 -1 0
  outer loop
   vertex 7 40.6667 0
   vertex 93 40.6667 0
   vertex 93 40.6667 2
  endloop
 endfacet
 facet normal 0 1 0
  outer loop
   vertex 7 43.6667 0
   vertex 93 43.6667 2
   vertex 93 43.6667 0
  endloop
 endfacet
 facet normal 0 -1 0
  outer loop
   vertex 7 40.6667 0
   vertex 93 40.6667 2
   vertex 7 40.6667 2
  endloop
 endfacet
 facet normal 0 1 0
  outer loop
   vertex 7 43.6667 0
   vertex 7 43.6667 2
   vertex 93 43.6667 2
  endloop
 endfacet
 facet normal 0 0 -1
  outer loop
   vertex 7 40.6667 0
   vertex 93 43.6667 0
   vertex 93 40.6667 0
  endloop
 endfacet
 facet normal 0 0 -1
  outer loop
   vertex 7 40.6667 0
   vertex 7 43.6667 0
   vertex 93 43.6667 0
  endloop
 endfacet
 facet normal 1 0 0
  outer loop
   vertex 93 40.6667 0
   vertex 93 43.6667 2
   vertex 93 40.6667 2
  endloop
 endfacet
 facet normal 1 0 0
  outer loop
   vertex 93 40.6667 0
   vertex 93 43.6667 0
   vertex 93 43.6667 2
  endloop
 endfacet
 facet normal 0 0 1
  outer loop
   vertex 93 40.6667 2
   vertex 7 43.6667 2
   vertex 7 40.6667 2
  endloop
 endfacet
 facet normal 0 -0 1
  outer loop
   vertex 93 40.6667 2
   vertex 93 43.6667 2
   vertex 7 43.6667 2
  endloop
 endfacet
 facet normal -1 0 0
  outer loop
   vertex 7 40.6667 2
   vertex 7 43.6667 0
   vertex 7 40.6667 0
  endloop
 endfacet
 facet normal -1 0 0
  outer loop
   vertex 7 40.6667 2
   vertex 7 43.6667 2
   vertex 7 43.6667 0
  endloop
 endfacet
 facet normal 0 -1 0
  outer loop
   vertex 7 76.3333 0
   vertex 93 76.3333 0
   vertex 93 76.3333 2
  endloop
 endfacet
 facet normal 0 1 0
  outer loop
   vertex 7 79.3333 0
   vertex 93 79.3333 2
   vertex 93 79.3333 0
  endloop
 endfacet
 facet normal 0 -1 0
  outer loop
   vertex 7 76.3333 0
   vertex 93 76.3333 2
   vertex 7 76.3333 2
  endloop
 endfacet
 facet normal 0 1 0
  outer loop
   vertex 7 79.3333 0
   vertex 7 79.3333 2
   vertex 93 79.3333 2
  endloop
 endfacet
 facet normal 0 0 -1
  outer loop
   vertex 7 76.3333 0
   vertex 93 79.3333 0
   vertex 93 76.3333 0
  endloop
 endfacet
 facet normal 0 0 -1
  outer loop
   vertex 7 76.3333 0
   vertex 7 79.3333 0
   vertex 93 79.3333 0
  endloop
 endfacet
 facet normal 1 0 0
  outer loop
   vertex 93 76.3333 0
   vertex 93 79.3333 2
   vertex 93 76.3333 2
  endloop
 endfacet
 facet normal 1 0 0
  outer loop
   vertex 93 76.3333 0
   vertex 93 79.3333 0
   vertex 93 79.3333 2
  endloop
 endfacet
 facet normal 0 0 1
  outer loop
   vertex 93 76.3333 2
   vertex 7 79.3333 2
   vertex 7 76.3333 2
  endloop
 endfacet
 facet normal 0 -0 1
  outer loop
   vertex 93 76.3333 2
   vertex 93 79.3333 2
   vertex 7 79.3333 2
  endloop
 endfacet
 facet normal -1 0 0
  outer loop
   vertex 7 76.3333 2
   vertex 7 79.3333 0
   vertex 7 76.3333 0
  endloop
 endfacet
 facet normal -1 0 0
  outer loop
   vertex 7 76.3333 2
   vertex 7 79.3333 2
   vertex 7 79.3333 0
  endloop
 endfacet
endsolid scancal_plate
